<svg width="20" height="20" viewBox="0 0 20 20" fill="none" xmlns="http://www.w3.org/2000/svg">
<path d="M10 13.7778C11.4728 13.7778 12.6667 12.5839 12.6667 11.1111C12.6667 9.63835 11.4728 8.44444 10 8.44444C8.52724 8.44444 7.33333 9.63835 7.33333 11.1111C7.33333 12.5839 8.52724 13.7778 10 13.7778Z" fill="#575C66"/>
<path d="M2 7.55556C2 6.57372 2.79594 5.77778 3.77778 5.77778H6C6.49092 5.77778 6.88889 5.37981 6.88889 4.88889C6.88889 4.39797 7.28686 4 7.77778 4H12.2222C12.7131 4 13.1111 4.39797 13.1111 4.88889C13.1111 5.37981 13.5091 5.77778 14 5.77778H16.2222C17.2041 5.77778 18 6.57372 18 7.55556V14.6667C18 15.6485 17.2041 16.4444 16.2222 16.4444H3.77778C2.79594 16.4444 2 15.6485 2 14.6667V7.55556Z" fill="#575C66"/>
<path d="M12.1667 11.1111C12.1667 12.3077 11.1966 13.2778 10 13.2778V14.2778C11.7489 14.2778 13.1667 12.86 13.1667 11.1111H12.1667ZM10 13.2778C8.80338 13.2778 7.83333 12.3077 7.83333 11.1111H6.83333C6.83333 12.86 8.2511 14.2778 10 14.2778V13.2778ZM7.83333 11.1111C7.83333 9.91449 8.80338 8.94444 10 8.94444V7.94444C8.2511 7.94444 6.83333 9.36221 6.83333 11.1111H7.83333ZM10 8.94444C11.1966 8.94444 12.1667 9.91449 12.1667 11.1111H13.1667C13.1667 9.36221 11.7489 7.94444 10 7.94444V8.94444ZM17.5 7.55556V14.6667H18.5V7.55556H17.5ZM16.2222 15.9444H3.77778V16.9444H16.2222V15.9444ZM2.5 14.6667V7.55556H1.5V14.6667H2.5ZM3.77778 6.27778H6V5.27778H3.77778V6.27778ZM14 6.27778H16.2222V5.27778H14V6.27778ZM7.77778 4.5H12.2222V3.5H7.77778V4.5ZM12.6111 4.88889C12.6111 5.65595 13.2329 6.27778 14 6.27778V5.27778C13.7852 5.27778 13.6111 5.10367 13.6111 4.88889H12.6111ZM6 6.27778C6.76706 6.27778 7.38889 5.65595 7.38889 4.88889H6.38889C6.38889 5.10367 6.21478 5.27778 6 5.27778V6.27778ZM13.6111 4.88889C13.6111 4.12183 12.9893 3.5 12.2222 3.5V4.5C12.437 4.5 12.6111 4.67411 12.6111 4.88889H13.6111ZM7.38889 4.88889C7.38889 4.67411 7.563 4.5 7.77778 4.5V3.5C7.01072 3.5 6.38889 4.12183 6.38889 4.88889H7.38889ZM3.77778 15.9444C3.07208 15.9444 2.5 15.3724 2.5 14.6667H1.5C1.5 15.9246 2.5198 16.9444 3.77778 16.9444V15.9444ZM17.5 14.6667C17.5 15.3724 16.9279 15.9444 16.2222 15.9444V16.9444C17.4802 16.9444 18.5 15.9246 18.5 14.6667H17.5ZM18.5 7.55556C18.5 6.29757 17.4802 5.27778 16.2222 5.27778V6.27778C16.9279 6.27778 17.5 6.84986 17.5 7.55556H18.5ZM2.5 7.55556C2.5 6.84986 3.07208 6.27778 3.77778 6.27778V5.27778C2.5198 5.27778 1.5 6.29757 1.5 7.55556H2.5Z" fill="#575C66"/>
<circle cx="10" cy="11" r="3" fill="white"/>
<circle cx="16" cy="8" r="1" fill="white"/>
</svg>
