<svg width="20" height="20" viewBox="0 0 20 20" fill="none" xmlns="http://www.w3.org/2000/svg">
<path d="M17.5 12.5V15C17.5 16.1046 16.6046 17 15.5 17H4.5C3.39543 17 2.5 16.1046 2.5 15V12.5" stroke="#575C66" stroke-width="1.6" stroke-linecap="round"/>
<path d="M10 13L9.43431 13.5657C9.74673 13.8781 10.2533 13.8781 10.5657 13.5657L10 13ZM10.8 2.21052C10.8 1.7687 10.4418 1.41052 10 1.41052C9.55817 1.41052 9.2 1.7687 9.2 2.21052H10.8ZM14.5657 9.56569C14.8781 9.25327 14.8781 8.74673 14.5657 8.43431C14.2533 8.1219 13.7467 8.1219 13.4343 8.43431L14.5657 9.56569ZM6.56569 8.43431C6.25327 8.1219 5.74673 8.1219 5.43431 8.43431C5.1219 8.74673 5.1219 9.25327 5.43431 9.56569L6.56569 8.43431ZM10.8 13V2.21052H9.2V13H10.8ZM10.5657 13.5657L14.5657 9.56569L13.4343 8.43431L9.43431 12.4343L10.5657 13.5657ZM10.5657 12.4343L6.56569 8.43431L5.43431 9.56569L9.43431 13.5657L10.5657 12.4343Z" fill="#575C66"/>
</svg>
