<svg width="24" height="30" viewBox="0 0 24 30" fill="none" xmlns="http://www.w3.org/2000/svg">
<path d="M20.5003 29.1666H3.50033C1.93552 29.1666 0.666992 27.8981 0.666992 26.3333V3.6666C0.666992 2.10179 1.93552 0.833266 3.50033 0.833266H13.417C13.4297 0.83162 13.4425 0.83162 13.4552 0.833266H13.4637C13.4771 0.837456 13.4909 0.840304 13.5048 0.841766C13.6298 0.849775 13.7531 0.874063 13.8717 0.914016H13.893H13.9142H13.9312C13.9574 0.932327 13.982 0.952698 14.0049 0.974933C14.1592 1.04353 14.2999 1.13953 14.42 1.25827L22.92 9.75827C23.0387 9.87838 23.1347 10.019 23.2033 10.1734C23.2161 10.2045 23.226 10.2343 23.2359 10.2668L23.2501 10.3065C23.2896 10.4247 23.313 10.5476 23.3195 10.672C23.3207 10.6861 23.3241 10.7 23.3294 10.7131V10.7216C23.3317 10.7309 23.3332 10.7404 23.3337 10.7499V26.3333C23.3337 27.0847 23.0351 27.8054 22.5038 28.3367C21.9724 28.8681 21.2518 29.1666 20.5003 29.1666ZM13.417 3.6666V10.7499H20.5003L13.417 3.6666Z" fill="#A2C3FE"/>
</svg>
