<svg width="20" height="20" viewBox="0 0 20 20" fill="none" xmlns="http://www.w3.org/2000/svg">
<path d="M2 4C2 2.89543 2.89543 2 4 2H12.7396C13.2294 2 13.7022 2.17976 14.0683 2.50518L17.3287 5.40331C17.7557 5.78285 18 6.32686 18 6.89813V16C18 17.1046 17.1046 18 16 18H4C2.89543 18 2 17.1046 2 16V4Z" fill="#575C66"/>
<path d="M17 7L13 3V7H17Z" fill="white"/>
<path d="M9.5 13C9.5 13.2761 9.72386 13.5 10 13.5C10.2761 13.5 10.5 13.2761 10.5 13H9.5ZM10 8L10.3536 7.64645C10.1583 7.45118 9.84171 7.45118 9.64645 7.64645L10 8ZM11.1464 9.85355C11.3417 10.0488 11.6583 10.0488 11.8536 9.85355C12.0488 9.65829 12.0488 9.34171 11.8536 9.14645L11.1464 9.85355ZM8.14645 9.14645C7.95118 9.34171 7.95118 9.65829 8.14645 9.85355C8.34171 10.0488 8.65829 10.0488 8.85355 9.85355L8.14645 9.14645ZM10.5 13V8H9.5V13H10.5ZM9.64645 8.35355L11.1464 9.85355L11.8536 9.14645L10.3536 7.64645L9.64645 8.35355ZM9.64645 7.64645L8.14645 9.14645L8.85355 9.85355L10.3536 8.35355L9.64645 7.64645Z" fill="white"/>
</svg>
