<svg width="34" height="34" viewBox="0 0 34 34" fill="none" xmlns="http://www.w3.org/2000/svg">
<path d="M25.4998 31.1666H8.49984C6.93503 31.1666 5.6665 29.8981 5.6665 28.3333V5.6666C5.6665 4.10179 6.93503 2.83327 8.49984 2.83327H18.4165C18.4292 2.83162 18.4421 2.83162 18.4548 2.83327H18.4633C18.4766 2.83746 18.4904 2.8403 18.5043 2.84177C18.6293 2.84977 18.7526 2.87406 18.8713 2.91402H18.8925H18.9138H18.9308C18.9569 2.93233 18.9815 2.9527 19.0044 2.97493C19.1588 3.04353 19.2994 3.13953 19.4195 3.25827L27.9195 11.7583C28.0382 11.8784 28.1342 12.019 28.2028 12.1734C28.2156 12.2045 28.2255 12.2343 28.2354 12.2668L28.2496 12.3065C28.2891 12.4247 28.3125 12.5476 28.319 12.672C28.3202 12.6861 28.3236 12.7 28.3289 12.7131V12.7216C28.3312 12.7309 28.3327 12.7404 28.3332 12.7499V28.3333C28.3332 29.0847 28.0347 29.8054 27.5033 30.3367C26.972 30.8681 26.2513 31.1666 25.4998 31.1666ZM18.4165 5.6666V12.7499H25.4998L18.4165 5.6666Z" fill="#00BC78"/>
<path d="M18.298 26L16.939 23.885L15.706 26H14.284L16.264 22.832L14.257 19.718H15.706L17.065 21.824L18.289 19.718H19.711L17.74 22.877L19.747 26H18.298Z" fill="white"/>
</svg>
