<svg width="34" height="34" viewBox="0 0 34 34" fill="none" xmlns="http://www.w3.org/2000/svg">
<path d="M25.4998 31.1666H8.49984C6.93503 31.1666 5.6665 29.8981 5.6665 28.3333V5.6666C5.6665 4.10179 6.93503 2.83327 8.49984 2.83327H18.4165C18.4292 2.83162 18.4421 2.83162 18.4548 2.83327H18.4633C18.4766 2.83746 18.4904 2.8403 18.5043 2.84177C18.6293 2.84977 18.7526 2.87406 18.8713 2.91402H18.8925H18.9138H18.9308C18.9569 2.93233 18.9815 2.9527 19.0044 2.97493C19.1588 3.04353 19.2994 3.13953 19.4195 3.25827L27.9195 11.7583C28.0382 11.8784 28.1342 12.019 28.2028 12.1734C28.2156 12.2045 28.2255 12.2343 28.2354 12.2668L28.2496 12.3065C28.2891 12.4247 28.3125 12.5476 28.319 12.672C28.3202 12.6861 28.3236 12.7 28.3289 12.7131V12.7216C28.3312 12.7309 28.3327 12.7404 28.3332 12.7499V28.3333C28.3332 29.0847 28.0347 29.8054 27.5033 30.3367C26.972 30.8681 26.2513 31.1666 25.4998 31.1666ZM18.4165 5.6666V12.7499H25.4998L18.4165 5.6666Z" fill="#EB5757"/>
<path d="M13.8524 21.662C13.8524 21.998 13.7714 22.313 13.6094 22.607C13.4534 22.901 13.2044 23.138 12.8624 23.318C12.5264 23.498 12.1004 23.588 11.5844 23.588H10.5314V26H9.27139V19.718H11.5844C12.0704 19.718 12.4844 19.802 12.8264 19.97C13.1684 20.138 13.4234 20.369 13.5914 20.663C13.7654 20.957 13.8524 21.29 13.8524 21.662ZM11.5304 22.571C11.8784 22.571 12.1364 22.493 12.3044 22.337C12.4724 22.175 12.5564 21.95 12.5564 21.662C12.5564 21.05 12.2144 20.744 11.5304 20.744H10.5314V22.571H11.5304ZM16.943 19.718C17.603 19.718 18.182 19.847 18.68 20.105C19.184 20.363 19.571 20.732 19.841 21.212C20.117 21.686 20.255 22.238 20.255 22.868C20.255 23.498 20.117 24.05 19.841 24.524C19.571 24.992 19.184 25.355 18.68 25.613C18.182 25.871 17.603 26 16.943 26H14.747V19.718H16.943ZM16.898 24.929C17.558 24.929 18.068 24.749 18.428 24.389C18.788 24.029 18.968 23.522 18.968 22.868C18.968 22.214 18.788 21.704 18.428 21.338C18.068 20.966 17.558 20.78 16.898 20.78H16.007V24.929H16.898ZM25.0771 19.718V20.735H22.4581V22.346H24.4651V23.345H22.4581V26H21.1981V19.718H25.0771Z" fill="white"/>
</svg>
