<svg width="34" height="34" viewBox="0 0 34 34" fill="none" xmlns="http://www.w3.org/2000/svg">
<g clip-path="url(#clip0)">
<path d="M24.9706 11.0682H15.2294L13.2918 8.76528C13.2266 8.68692 13.1289 8.64298 13.0271 8.64616H5.16794C3.96803 8.65489 3 9.63007 3 10.83V24.9944C3.00146 26.1984 3.97716 27.1741 5.18118 27.1756H24.9706C26.1746 27.1741 27.1503 26.1984 27.1518 24.9944V13.2494C27.1503 12.0454 26.1746 11.0697 24.9706 11.0682Z" fill="#2E6DDE"/>
<path d="M27.8321 8.24644H18.0882L16.1506 5.9435C16.0854 5.86514 15.9877 5.8212 15.8859 5.82438H8.02942C6.94069 5.82617 6.02004 6.63047 5.87207 7.70908H13.0377C13.4134 7.70816 13.7702 7.874 14.0118 8.16173L15.6662 10.1285H24.9706C26.6915 10.1314 28.0859 11.5258 28.0888 13.2467V24.3326C29.1799 24.1965 29.9991 23.2695 30 22.17V10.425C29.9971 9.2271 29.0298 8.25517 27.8321 8.24644Z" fill="#2E6DDE"/>
</g>
<defs>
<clipPath id="clip0">
<rect width="27" height="27" fill="white" transform="translate(3 3)"/>
</clipPath>
</defs>
</svg>
