<svg width="22" height="23" viewBox="0 0 22 23" fill="none" xmlns="http://www.w3.org/2000/svg">
<path d="M1.58589 8.27443L7.97937 2.89822L9.51153 1.61073C9.80738 1.36212 10.1814 1.22583 10.5679 1.22583C10.9542 1.22583 11.3281 1.36205 11.6239 1.61051C11.624 1.61058 11.6241 1.61066 11.6242 1.61073L19.5498 8.27531L19.5501 8.27553C19.7334 8.42961 19.8809 8.62193 19.982 8.83901C20.0832 9.05602 20.1356 9.29251 20.1357 9.53193C20.1357 9.53201 20.1357 9.53209 20.1357 9.53218V20.6018C20.1357 20.8037 20.0555 20.9973 19.9127 21.1401L20.6198 21.8472L19.9127 21.1401C19.77 21.2829 19.5763 21.3631 19.3744 21.3631H14.5308C14.3289 21.3631 14.1353 21.2829 13.9925 21.1401C13.8497 20.9973 13.7695 20.8037 13.7695 20.6018V14.4372V13.4372H12.7695H8.36622H7.36622V14.4372V20.6018C7.36622 20.8037 7.28601 20.9973 7.14324 21.1401C7.00047 21.2829 6.80683 21.3631 6.60491 21.3631H1.76131C1.5594 21.3631 1.36576 21.2829 1.22298 21.1401C1.08021 20.9973 1 20.8037 1 20.6018L1 9.5313C1 9.53123 1 9.53117 1 9.53111C1.00009 9.29167 1.05254 9.05515 1.15368 8.83813C1.25485 8.62105 1.40228 8.42872 1.58563 8.27465L1.58589 8.27443Z" fill="#2E6DDE" stroke="#2E6DDE" stroke-width="2"/>
</svg>
