<svg width="22" height="23" viewBox="0 0 22 23" fill="none" xmlns="http://www.w3.org/2000/svg">
<path d="M1.58589 8.0486L7.97937 2.67239L9.51153 1.3849C9.80738 1.13629 10.1814 1 10.5679 1C10.9542 1 11.3281 1.13622 11.6239 1.38468C11.624 1.38475 11.6241 1.38483 11.6242 1.3849L19.5498 8.04948L19.5501 8.0497C19.7334 8.20378 19.8809 8.3961 19.982 8.61318C20.0832 8.83019 20.1356 9.06668 20.1357 9.3061C20.1357 9.30618 20.1357 9.30626 20.1357 9.30635V20.3759C20.1357 20.5778 20.0555 20.7715 19.9127 20.9143L20.6198 21.6214L19.9127 20.9143C19.77 21.057 19.5763 21.1372 19.3744 21.1372H14.5308C14.3289 21.1372 14.1353 21.057 13.9925 20.9143C13.8497 20.7715 13.7695 20.5778 13.7695 20.3759V14.2113V13.2113H12.7695H8.36622H7.36622V14.2113V20.3759C7.36622 20.5778 7.28601 20.7715 7.14324 20.9143C7.00047 21.057 6.80683 21.1372 6.60491 21.1372H1.76131C1.5594 21.1372 1.36576 21.057 1.22298 20.9143C1.08021 20.7715 1 20.5778 1 20.3759L1 9.30547C1 9.3054 1 9.30534 1 9.30528C1.00009 9.06584 1.05254 8.82932 1.15368 8.6123C1.25485 8.39522 1.40228 8.20289 1.58563 8.04882L1.58589 8.0486Z" stroke="#BFBFBF" stroke-width="2"/>
</svg>
