<svg width="14" height="14" viewBox="0 0 14 14" fill="none" xmlns="http://www.w3.org/2000/svg">
<path d="M8.30969 1.66633L6.75006 0.106702C6.67936 0.0360028 6.58506 -0.000193707 6.48759 1.79681e-05C6.38831 -0.000934571 6.29189 0.0360028 6.22119 0.106702L4.69375 1.63415C4.55065 1.77724 4.55065 2.00987 4.69375 2.15286L4.89071 2.34982C5.02883 2.48794 5.26993 2.48794 5.40815 2.34982L5.9929 1.7638V3.91728C5.9929 3.92384 5.99671 3.92924 5.99788 3.93538C6.01375 4.12303 6.17113 4.27152 6.36302 4.27152H6.64137C6.84362 4.27152 7.0099 4.10726 7.0099 3.905V3.66454C7.0099 3.66348 7.0099 3.66274 7.0099 3.66189V1.79577L7.59486 2.38189C7.73795 2.52499 7.97005 2.52499 8.11304 2.38189L8.30969 2.18514C8.45278 2.04194 8.45278 1.80921 8.30969 1.66633Z" fill="#212121"/>
<path d="M8.30961 10.8334L8.11275 10.6361C7.97463 10.4978 7.73343 10.4978 7.5951 10.6361L7.01013 11.2222V9.36437C7.01013 9.36331 7.01013 9.36268 7.01013 9.36173V9.12126C7.01013 8.9189 6.84376 8.7466 6.64171 8.7466H6.36315C6.17148 8.7466 6.0141 8.8989 5.99811 9.08676C5.99695 9.093 5.99314 9.10253 5.99314 9.10899V11.2544L5.40839 10.6684C5.27016 10.5302 5.02854 10.5302 4.89031 10.6684L4.69345 10.8654C4.55057 11.0083 4.55078 11.2411 4.69388 11.3842L6.22143 12.9115C6.29033 12.9806 6.3823 13.0182 6.47724 13.0182H6.491C6.58932 13.0182 6.68108 12.9807 6.75009 12.9115L8.30961 11.352C8.4527 11.209 8.4527 10.9764 8.30961 10.8334Z" fill="#212121"/>
<path d="M3.88876 6.00038H3.85743H3.64714C3.64639 6.00038 3.64565 6.00038 3.64481 6.00038H1.79582L2.38195 5.41743C2.45106 5.34842 2.48906 5.25782 2.48906 5.15971C2.48906 5.0615 2.45106 4.97016 2.38195 4.90126L2.18499 4.70472C2.0419 4.56162 1.80916 4.56184 1.66628 4.70493L0.106655 6.26445C0.0359551 6.33504 -0.00182895 6.42976 7.61232e-05 6.52692C-0.00193479 6.628 0.0359551 6.72262 0.106655 6.79332L1.6341 8.32087C1.70565 8.39242 1.79953 8.42819 1.89351 8.42819C1.9875 8.42819 2.08137 8.39242 2.15292 8.32087L2.34978 8.12401C2.41889 8.05501 2.45699 7.96282 2.45699 7.86471C2.45699 7.76649 2.419 7.67336 2.34978 7.60446L1.76386 7.01748H3.89988C3.90633 7.01748 3.91691 7.01589 3.92305 7.01473C4.11081 6.99885 4.26417 6.84359 4.26417 6.65181V6.37304C4.26417 6.17099 4.09102 6.00038 3.88876 6.00038Z" fill="#212121"/>
<path d="M12.8967 6.26463L11.337 4.70522C11.1941 4.56213 10.9613 4.56213 10.8183 4.70522L10.6216 4.90218C10.5525 4.97108 10.5144 5.06327 10.5144 5.16138C10.5144 5.2596 10.5524 5.3485 10.6216 5.41751L11.2076 6.00046H9.34677C9.34581 6.00046 9.34507 6.00046 9.34423 6.00046H9.10387C8.90161 6.00046 8.73926 6.17097 8.73926 6.37312V6.65189C8.73926 6.84367 8.88648 6.99872 9.07434 7.0147C9.08058 7.01597 9.08513 7.01756 9.09148 7.01756H11.2397L10.6534 7.60443C10.5844 7.67333 10.5463 7.76626 10.5463 7.86416C10.5463 7.96248 10.5843 8.05487 10.6534 8.12388L10.8505 8.32084C10.9219 8.39239 11.0158 8.42827 11.1098 8.42827C11.2038 8.42827 11.2976 8.3925 11.3691 8.32095L12.8968 6.7934C12.9673 6.72291 13.005 6.62818 13.0033 6.53092C13.0049 6.42984 12.9672 6.33512 12.8967 6.26463Z" fill="#212121"/>
<path d="M6.5019 5.49138C5.94085 5.49138 5.48438 5.94786 5.48438 6.50901C5.48438 7.07005 5.94085 7.52664 6.5019 7.52664C7.06294 7.52664 7.51953 7.07005 7.51953 6.50901C7.51953 5.94786 7.06294 5.49138 6.5019 5.49138Z" fill="#212121"/>
</svg>
