<svg width="20" height="20" viewBox="0 0 20 20" fill="none" xmlns="http://www.w3.org/2000/svg">
<path d="M3.68333 17.1495C3.44956 17.1491 3.22672 17.0506 3.06916 16.8779C2.9087 16.7066 2.82896 16.475 2.84999 16.2412L3.05416 13.9962L12.4858 4.56787L15.4333 7.51454L6.00416 16.942L3.75916 17.1462C3.73333 17.1487 3.70749 17.1495 3.68333 17.1495ZM16.0217 6.92537L13.075 3.9787L14.8425 2.2112C14.9988 2.05472 15.2109 1.9668 15.4321 1.9668C15.6533 1.9668 15.8654 2.05472 16.0217 2.2112L17.7892 3.9787C17.9456 4.13501 18.0336 4.34711 18.0336 4.56829C18.0336 4.78946 17.9456 5.00156 17.7892 5.15787L16.0225 6.92454L16.0217 6.92537Z" fill="#575C66"/>
</svg>
