<svg width="20" height="20" viewBox="0 0 20 20" fill="none" xmlns="http://www.w3.org/2000/svg">
<rect x="2" y="2" width="16" height="16" rx="2" fill="#575C66"/>
<path d="M7.1219 12.5275L9.06161 14.8644L11.925 11.179C12.1097 10.9388 12.4792 10.9388 12.6639 11.1882L15.906 15.511C16.1369 15.8158 15.9152 16.2499 15.5365 16.2499H4.46173C4.07379 16.2499 3.86135 15.8066 4.1015 15.5017L6.40144 12.546C6.57694 12.3059 6.92793 12.2966 7.1219 12.5275Z" fill="white"/>
<path d="M9.5 10C9.5 10.2761 9.72386 10.5 10 10.5C10.2761 10.5 10.5 10.2761 10.5 10H9.5ZM10 5L10.3536 4.64645C10.1583 4.45118 9.84171 4.45118 9.64645 4.64645L10 5ZM11.1464 6.85355C11.3417 7.04882 11.6583 7.04882 11.8536 6.85355C12.0488 6.65829 12.0488 6.34171 11.8536 6.14645L11.1464 6.85355ZM8.14645 6.14645C7.95118 6.34171 7.95118 6.65829 8.14645 6.85355C8.34171 7.04882 8.65829 7.04882 8.85355 6.85355L8.14645 6.14645ZM10.5 10V5H9.5V10H10.5ZM9.64645 5.35355L11.1464 6.85355L11.8536 6.14645L10.3536 4.64645L9.64645 5.35355ZM9.64645 4.64645L8.14645 6.14645L8.85355 6.85355L10.3536 5.35355L9.64645 4.64645Z" fill="white"/>
</svg>
