<svg width="16" height="14" viewBox="0 0 16 14" fill="none" xmlns="http://www.w3.org/2000/svg">
<path d="M8.09788 5.40037L9.37907 4.11919V10.8966C9.37907 11.0612 9.44446 11.2191 9.56086 11.3355C9.67726 11.4519 9.83514 11.5173 9.99976 11.5173C10.1644 11.5173 10.3222 11.4519 10.4386 11.3355C10.5551 11.2191 10.6204 11.0612 10.6204 10.8966V4.11919L11.9016 5.40037C11.9592 5.45826 12.0276 5.50422 12.103 5.53563C12.1784 5.56703 12.2592 5.58325 12.3409 5.58336C12.4225 5.58347 12.5034 5.56747 12.5788 5.53627C12.6543 5.50508 12.7229 5.4593 12.7806 5.40156C12.8383 5.34383 12.8841 5.27526 12.9153 5.19981C12.9465 5.12435 12.9625 5.04348 12.9624 4.96182C12.9623 4.88017 12.9461 4.79935 12.9147 4.72397C12.8833 4.6486 12.8373 4.58016 12.7794 4.52258L10.4387 2.18181C10.381 2.12417 10.3126 2.07844 10.2373 2.04725C10.162 2.01606 10.0813 2 9.99976 2C9.91824 2 9.83753 2.01606 9.76222 2.04725C9.68691 2.07844 9.61849 2.12417 9.56085 2.18181L7.2201 4.52258C7.16221 4.58016 7.11624 4.6486 7.08484 4.72397C7.05344 4.79935 7.03722 4.88017 7.03711 4.96182C7.037 5.04348 7.053 5.12435 7.0842 5.19981C7.11539 5.27526 7.16117 5.34383 7.21891 5.40156C7.27664 5.4593 7.3452 5.50508 7.42066 5.53627C7.49612 5.56747 7.57699 5.58347 7.65864 5.58336C7.7403 5.58325 7.82112 5.56703 7.8965 5.53563C7.97187 5.50422 8.04031 5.45826 8.09788 5.40037Z" fill="#212121"/>
<path d="M15.3793 7.37936C15.2147 7.37936 15.0568 7.44475 14.9404 7.56115C14.824 7.67755 14.7586 7.83543 14.7586 8.00005V12.7587H5.24138V8.00005C5.24138 7.83543 5.17599 7.67755 5.05958 7.56115C4.94318 7.44475 4.78531 7.37936 4.62069 7.37936C4.45607 7.37936 4.2982 7.44475 4.1818 7.56115C4.06539 7.67755 4 7.83543 4 8.00005V12.9656C4 13.2399 4.10899 13.503 4.30299 13.6971C4.497 13.8911 4.76012 14 5.03448 14H14.9655C15.2399 14 15.503 13.8911 15.697 13.6971C15.891 13.503 16 13.2399 16 12.9656V8.00005C16 7.83543 15.9346 7.67755 15.8182 7.56115C15.7018 7.44475 15.5439 7.37936 15.3793 7.37936Z" fill="#212121"/>
<path d="M3.48611 1.38086C2.95841 1.38086 2.52908 1.80239 2.52908 2.32059V2.70025C2.19743 2.74703 1.94141 3.03259 1.94141 3.37695V4.93555C1.94141 5.08658 2.06381 5.20898 2.21484 5.20898H4.75781C4.90884 5.20898 5.03125 5.08658 5.03125 4.93555V3.37695C5.03125 3.03243 4.77501 2.74677 4.44315 2.70014V2.32059C4.44315 1.80239 4.01382 1.38086 3.48611 1.38086ZM3.48611 1.92773C3.71223 1.92773 3.89627 2.10397 3.89627 2.32059V2.69336H3.07596V2.32059C3.07596 2.10397 3.25994 1.92773 3.48611 1.92773ZM4.48438 3.37695V4.66211H2.48828V3.37695C2.48828 3.30154 2.54959 3.24023 2.625 3.24023H4.34766C4.42307 3.24023 4.48438 3.30154 4.48438 3.37695ZM3.75977 3.95117C3.75977 4.1022 3.63736 4.22461 3.48633 4.22461C3.3353 4.22461 3.21289 4.1022 3.21289 3.95117C3.21289 3.80014 3.3353 3.67773 3.48633 3.67773C3.63736 3.67773 3.75977 3.80014 3.75977 3.95117ZM7 3.5C7 4.19086 6.79492 4.86275 6.40698 5.44301C6.32308 5.56851 6.15325 5.60226 6.02769 5.51836C5.90214 5.43441 5.86844 5.26458 5.95234 5.13908C6.27998 4.64902 6.45312 4.08228 6.45312 3.5C6.45312 1.87166 5.12834 0.546875 3.5 0.546875C1.87166 0.546875 0.546875 1.87166 0.546875 3.5C0.546875 5.12834 1.87166 6.45312 3.5 6.45312C4.04009 6.45312 4.56838 6.30605 5.02767 6.02785C5.15681 5.94962 5.32498 5.9909 5.40322 6.12009C5.48146 6.24922 5.44018 6.41734 5.31099 6.49558C4.76625 6.82558 4.14001 7 3.5 7C2.56513 7 1.68618 6.63593 1.02512 5.97488C0.364067 5.31382 0 4.43487 0 3.5C0 2.56513 0.364067 1.68618 1.02512 1.02512C1.68618 0.364067 2.56513 0 3.5 0C4.43487 0 5.31382 0.364067 5.97488 1.02512C6.63593 1.68618 7 2.56513 7 3.5Z" fill="black"/>
</svg>
