<svg width="22" height="23" viewBox="0 0 22 23" fill="none" xmlns="http://www.w3.org/2000/svg">
<g clip-path="url(#clip0)">
<path d="M10.9999 12.6175C4.38971 12.6175 0.749268 15.7446 0.749268 21.4229C0.749268 21.8664 1.1087 22.2258 1.55218 22.2258H20.4476C20.891 22.2258 21.2505 21.8664 21.2505 21.4229C21.2505 15.7449 17.6101 12.6175 10.9999 12.6175ZM2.38431 20.62C2.70014 16.3744 5.59464 14.2234 10.9999 14.2234C16.4051 14.2234 19.2997 16.3744 19.6158 20.62H2.38431Z" fill="#BFBFBF"/>
<path d="M10.9999 0.22583C7.96346 0.22583 5.67383 2.56153 5.67383 5.65867C5.67383 8.84652 8.06306 11.4397 10.9999 11.4397C13.9366 11.4397 16.3259 8.84652 16.3259 5.65893C16.3259 2.56153 14.0362 0.22583 10.9999 0.22583ZM10.9999 9.83412C8.94839 9.83412 7.27966 7.96115 7.27966 5.65893C7.27966 3.44127 8.84428 1.83166 10.9999 1.83166C13.1209 1.83166 14.72 3.47685 14.72 5.65893C14.72 7.96115 13.0513 9.83412 10.9999 9.83412Z" fill="#BFBFBF"/>
</g>
<defs>
<clipPath id="clip0">
<rect width="22" height="22" fill="white" transform="translate(0 0.22583)"/>
</clipPath>
</defs>
</svg>
