<svg width="12" height="12" viewBox="0 0 12 12" fill="none" xmlns="http://www.w3.org/2000/svg">
<path d="M4.09788 3.40037L5.37907 2.11919V8.89657C5.37907 9.06119 5.44446 9.21907 5.56086 9.33547C5.67726 9.45187 5.83514 9.51726 5.99976 9.51726C6.16437 9.51726 6.32225 9.45187 6.43865 9.33547C6.55505 9.21907 6.62045 9.06119 6.62045 8.89657V2.11919L7.90163 3.40037C7.95921 3.45826 8.02764 3.50422 8.10301 3.53563C8.17839 3.56703 8.25922 3.58325 8.34087 3.58336C8.42252 3.58347 8.50339 3.56747 8.57885 3.53627C8.65431 3.50508 8.72287 3.4593 8.78061 3.40156C8.83834 3.34383 8.88412 3.27526 8.91532 3.19981C8.94651 3.12435 8.96251 3.04348 8.9624 2.96182C8.96229 2.88017 8.94607 2.79935 8.91467 2.72397C8.88327 2.6486 8.8373 2.58016 8.77941 2.52258L6.43866 0.181807C6.38102 0.124167 6.3126 0.0784448 6.23729 0.0472502C6.16198 0.0160557 6.08127 0 5.99976 0C5.91824 0 5.83753 0.0160557 5.76222 0.0472502C5.68691 0.0784448 5.61849 0.124167 5.56085 0.181807L3.2201 2.52258C3.16221 2.58016 3.11624 2.6486 3.08484 2.72397C3.05344 2.79935 3.03722 2.88017 3.03711 2.96182C3.037 3.04348 3.053 3.12435 3.0842 3.19981C3.11539 3.27526 3.16117 3.34383 3.21891 3.40156C3.27664 3.4593 3.3452 3.50508 3.42066 3.53627C3.49612 3.56747 3.57699 3.58347 3.65864 3.58336C3.7403 3.58325 3.82112 3.56703 3.8965 3.53563C3.97187 3.50422 4.04031 3.45826 4.09788 3.40037Z" fill="#212121"/>
<path d="M11.3793 5.37936C11.2147 5.37936 11.0568 5.44475 10.9404 5.56115C10.824 5.67755 10.7586 5.83543 10.7586 6.00005V10.7587H1.24138V6.00005C1.24138 5.83543 1.17599 5.67755 1.05958 5.56115C0.943182 5.44475 0.785307 5.37936 0.62069 5.37936C0.456073 5.37936 0.298198 5.44475 0.181796 5.56115C0.0653939 5.67755 0 5.83543 0 6.00005V10.9656C0 11.2399 0.10899 11.503 0.302993 11.6971C0.496996 11.8911 0.760121 12 1.03448 12H10.9655C11.2399 12 11.503 11.8911 11.697 11.6971C11.891 11.503 12 11.2399 12 10.9656V6.00005C12 5.83543 11.9346 5.67755 11.8182 5.56115C11.7018 5.44475 11.5439 5.37936 11.3793 5.37936Z" fill="#212121"/>
</svg>
