<svg width="14" height="14" viewBox="0 0 14 14" fill="none" xmlns="http://www.w3.org/2000/svg">
<path d="M5.98674 11.9735C7.31503 11.9732 8.60505 11.5285 9.65138 10.7103L12.9411 14L13.9993 12.9418L10.7095 9.65213C11.5282 8.60569 11.9732 7.31538 11.9735 5.98674C11.9735 2.6858 9.28768 0 5.98674 0C2.6858 0 0 2.6858 0 5.98674C0 9.28768 2.6858 11.9735 5.98674 11.9735ZM5.98674 1.49669C8.46301 1.49669 10.4768 3.51048 10.4768 5.98674C10.4768 8.46301 8.46301 10.4768 5.98674 10.4768C3.51048 10.4768 1.49669 8.46301 1.49669 5.98674C1.49669 3.51048 3.51048 1.49669 5.98674 1.49669Z" fill="#828282"/>
</svg>
