<svg width="13" height="13" viewBox="0 0 13 13" fill="none" xmlns="http://www.w3.org/2000/svg">
<g clip-path="url(#clip0)">
<circle cx="7.90847" cy="6.72732" r="1.77273" fill="#888888"/>
<path d="M12.6362 12.6363C12.6362 12.1707 12.5139 11.7096 12.2763 11.2795C12.0388 10.8493 11.6906 10.4585 11.2516 10.1293C10.8126 9.80003 10.2915 9.53888 9.71796 9.3607C9.14442 9.18253 8.52971 9.09082 7.90891 9.09082C7.28812 9.09082 6.6734 9.18253 6.09986 9.3607C5.52632 9.53888 5.00519 9.80003 4.56623 10.1293C4.12726 10.4585 3.77905 10.8493 3.54148 11.2795C3.30392 11.7096 3.18164 12.1707 3.18164 12.6363L7.90891 12.6363H12.6362Z" fill="#888888"/>
<circle cx="4.72683" cy="6.77273" r="2.02273" fill="#888888" stroke="white" stroke-width="0.5"/>
<mask id="path-4-outside-1" maskUnits="userSpaceOnUse" x="-1" y="8.13623" width="11" height="6" fill="black">
<rect fill="white" x="-1" y="8.13623" width="11" height="6"/>
<path d="M9.45455 12.6817C9.45455 12.2161 9.33227 11.7551 9.0947 11.3249C8.85713 10.8947 8.50893 10.5039 8.06996 10.1747C7.63099 9.84544 7.10986 9.58429 6.53632 9.40611C5.96278 9.22794 5.34807 9.13623 4.72727 9.13623C4.10648 9.13623 3.49176 9.22794 2.91822 9.40611C2.34468 9.58429 1.82355 9.84544 1.38459 10.1747C0.945618 10.5039 0.59741 10.8947 0.359842 11.3249C0.122274 11.7551 -5.42715e-08 12.2161 0 12.6817L4.72727 12.6817H9.45455Z"/>
</mask>
<path d="M9.45455 12.6817C9.45455 12.2161 9.33227 11.7551 9.0947 11.3249C8.85713 10.8947 8.50893 10.5039 8.06996 10.1747C7.63099 9.84544 7.10986 9.58429 6.53632 9.40611C5.96278 9.22794 5.34807 9.13623 4.72727 9.13623C4.10648 9.13623 3.49176 9.22794 2.91822 9.40611C2.34468 9.58429 1.82355 9.84544 1.38459 10.1747C0.945618 10.5039 0.59741 10.8947 0.359842 11.3249C0.122274 11.7551 -5.42715e-08 12.2161 0 12.6817L4.72727 12.6817H9.45455Z" fill="#888888"/>
<path d="M9.45455 12.6817C9.45455 12.2161 9.33227 11.7551 9.0947 11.3249C8.85713 10.8947 8.50893 10.5039 8.06996 10.1747C7.63099 9.84544 7.10986 9.58429 6.53632 9.40611C5.96278 9.22794 5.34807 9.13623 4.72727 9.13623C4.10648 9.13623 3.49176 9.22794 2.91822 9.40611C2.34468 9.58429 1.82355 9.84544 1.38459 10.1747C0.945618 10.5039 0.59741 10.8947 0.359842 11.3249C0.122274 11.7551 -5.42715e-08 12.2161 0 12.6817L4.72727 12.6817H9.45455Z" stroke="white" mask="url(#path-4-outside-1)"/>
<path d="M12.5579 0.78124C11.7048 0.78124 11.0511 0.537481 10.4984 0C9.94577 0.537481 9.29218 0.78124 8.43907 0.78124C8.43907 2.18082 8.14945 4.18583 10.4984 5C12.8475 4.18581 12.5579 2.18082 12.5579 0.78124Z" fill="#888888"/>
<path d="M9.5 2.5L10.4185 3.41847C10.4615 3.4615 10.5327 3.45644 10.5692 3.40776L12 1.5" stroke="white" stroke-width="0.5" stroke-linecap="round"/>
</g>
<defs>
<clipPath id="clip0">
<rect width="13" height="13" fill="white"/>
</clipPath>
</defs>
</svg>
